<svg xmlns="http://www.w3.org/2000/svg" viewBox="0 0 800 520" width="800" height="520" role="img" aria-label="Family First Plumbing template">
  <defs>
    <linearGradient id="ff-bg" x1="0%" y1="0%" x2="100%" y2="100%">
      <stop offset="0%" stop-color="#fafafa"/>
      <stop offset="50%" stop-color="#f0f9f8"/>
      <stop offset="100%" stop-color="#e6f5f3"/>
    </linearGradient>
    <linearGradient id="ff-glow" x1="0%" y1="100%" x2="100%" y2="0%">
      <stop offset="0%" stop-color="#21a99f" stop-opacity="0.3"/>
      <stop offset="100%" stop-color="#21a99f" stop-opacity="0"/>
    </linearGradient>
  </defs>
  <rect width="800" height="520" fill="url(#ff-bg)"/>
  <rect width="800" height="520" fill="url(#ff-glow)"/>
  <g stroke="#383838" stroke-opacity="0.06" stroke-width="1" fill="none">
    <path d="M0 104 H800 M0 208 H800 M0 312 H800 M0 416 H800"/>
    <path d="M160 0 V520 M320 0 V520 M480 0 V520 M640 0 V520"/>
  </g>
  <rect x="48" y="72" width="300" height="376" rx="4" fill="#383838" opacity="0.07"/>
  <rect x="432" y="120" width="320" height="280" rx="4" fill="#21a99f" opacity="0.14"/>
  <path d="M100 400 Q200 280 320 340 T520 260 T700 320" stroke="#21a99f" stroke-width="3" fill="none" opacity="0.5"/>
  <circle cx="520" cy="260" r="6" fill="#21a99f" opacity="0.4"/>
  <g transform="translate(400 248)">
    <text fill="#383838" font-family="Arial, Helvetica, sans-serif" font-size="40" font-weight="800" text-anchor="middle" y="-8">Family First</text>
    <text fill="#21a99f" font-family="Arial, Helvetica, sans-serif" font-size="17" font-weight="700" letter-spacing="0.28em" text-anchor="middle" y="28">PLUMBING</text>
    <rect x="-150" y="48" width="300" height="4" rx="2" fill="#21a99f"/>
    <text fill="#64748b" font-family="Arial, Helvetica, sans-serif" font-size="12" font-weight="600" letter-spacing="0.16em" text-anchor="middle" y="78">PREMIUM SHORE PLUMBING</text>
  </g>
  <rect x="0" y="0" width="800" height="520" fill="none" stroke="#21a99f" stroke-opacity="0.15" stroke-width="2"/>
</svg>
