<svg xmlns="http://www.w3.org/2000/svg" viewBox="0 0 800 520" width="800" height="520" role="img" aria-label="MINHS Automotive template">
  <defs>
    <linearGradient id="m-bg" x1="0%" y1="0%" x2="100%" y2="100%">
      <stop offset="0%" stop-color="#0a0a0a"/>
      <stop offset="50%" stop-color="#141414"/>
      <stop offset="100%" stop-color="#1f1f1f"/>
    </linearGradient>
    <linearGradient id="m-glow" x1="0%" y1="100%" x2="100%" y2="0%">
      <stop offset="0%" stop-color="#2563eb" stop-opacity="0.38"/>
      <stop offset="100%" stop-color="#2563eb" stop-opacity="0"/>
    </linearGradient>
  </defs>
  <rect width="800" height="520" fill="url(#m-bg)"/>
  <rect width="800" height="520" fill="url(#m-glow)"/>
  <g stroke="#e8edf5" stroke-opacity="0.04" stroke-width="1" fill="none">
    <path d="M0 104 H800 M0 208 H800 M0 312 H800 M0 416 H800"/>
    <path d="M160 0 V520 M320 0 V520 M480 0 V520 M640 0 V520"/>
  </g>
  <rect x="48" y="72" width="320" height="376" rx="4" fill="#0a0a0a" opacity="0.55"/>
  <rect x="400" y="120" width="352" height="280" rx="4" fill="#2563eb" opacity="0.12"/>
  <path d="M60 420 Q180 300 320 360 T520 280 T740 340" stroke="#2563eb" stroke-width="3" fill="none" opacity="0.5"/>
  <path d="M120 448 L200 448 L228 420 L340 420 L372 448 L520 448 L568 408 L640 448 L720 448" stroke="#94a3b8" stroke-width="2" fill="none" opacity="0.35"/>
  <circle cx="200" cy="448" r="14" fill="#1a1a1a" stroke="#64748b" stroke-width="2" opacity="0.6"/>
  <circle cx="600" cy="448" r="14" fill="#1a1a1a" stroke="#64748b" stroke-width="2" opacity="0.6"/>
  <g transform="translate(400 248)">
    <text fill="#f8fafc" font-family="Arial, Helvetica, sans-serif" font-size="48" font-weight="800" letter-spacing="-0.02em" text-anchor="middle" y="-8">MINHS</text>
    <text fill="#2563eb" font-family="Arial, Helvetica, sans-serif" font-size="18" font-weight="700" letter-spacing="0.28em" text-anchor="middle" y="28">AUTOMOTIVE</text>
    <rect x="-170" y="48" width="340" height="4" rx="2" fill="#2563eb"/>
    <text fill="#94a3b8" font-family="Arial, Helvetica, sans-serif" font-size="12" font-weight="600" letter-spacing="0.16em" text-anchor="middle" y="78">PREMIUM EUROPEAN AUTO REPAIR</text>
  </g>
  <rect x="0" y="0" width="800" height="520" fill="none" stroke="#2563eb" stroke-opacity="0.14" stroke-width="2"/>
</svg>
