<svg xmlns="http://www.w3.org/2000/svg" viewBox="0 0 320 200" fill="none">
  <rect width="320" height="200" fill="#f5f5f7"/>
  <rect x="0" y="168" width="320" height="32" fill="#e8e8ed"/>
  <rect x="118" y="28" width="84" height="148" rx="14" fill="#ffffff" stroke="#0071e3" stroke-width="2.5"/>
  <rect x="128" y="42" width="64" height="108" rx="4" fill="#1d1d1f" opacity="0.92"/>
  <circle cx="160" cy="158" r="5" fill="#0071e3" opacity="0.35"/>
  <rect x="136" y="52" width="48" height="6" rx="2" fill="#0071e3" opacity="0.85"/>
  <rect x="136" y="64" width="36" height="4" rx="1" fill="#86868b"/>
  <rect x="40" y="88" width="56" height="48" rx="6" fill="#ffffff" stroke="#d2d2d7" stroke-width="1.5"/>
  <rect x="48" y="98" width="24" height="24" rx="4" fill="#0071e3" opacity="0.2"/>
  <rect x="48" y="128" width="32" height="4" rx="1" fill="#86868b"/>
  <rect x="224" y="88" width="56" height="48" rx="6" fill="#ffffff" stroke="#d2d2d7" stroke-width="1.5"/>
  <rect x="232" y="98" width="24" height="24" rx="4" fill="#0071e3" opacity="0.2"/>
  <rect x="232" y="128" width="32" height="4" rx="1" fill="#86868b"/>
  <text x="160" y="22" text-anchor="middle" fill="#0071e3" font-family="system-ui,sans-serif" font-size="11" font-weight="700" letter-spacing="2">RETAIL</text>
  <text x="160" y="192" text-anchor="middle" fill="#1d1d1f" font-family="system-ui,sans-serif" font-size="13" font-weight="600">NEXORA MOBILE</text>
</svg>
