<svg xmlns="http://www.w3.org/2000/svg" viewBox="0 0 800 520" width="800" height="520" role="img" aria-label="MrBuilderNYC template">
  <defs>
    <linearGradient id="m-bg" x1="0%" y1="0%" x2="100%" y2="100%">
      <stop offset="0%" stop-color="#0a0f1a"/>
      <stop offset="50%" stop-color="#0f172a"/>
      <stop offset="100%" stop-color="#1e293b"/>
    </linearGradient>
    <linearGradient id="m-glow" x1="50%" y1="100%" x2="50%" y2="0%">
      <stop offset="0%" stop-color="#f97316" stop-opacity="0.28"/>
      <stop offset="100%" stop-color="#f97316" stop-opacity="0"/>
    </linearGradient>
  </defs>
  <rect width="800" height="520" fill="url(#m-bg)"/>
  <rect width="800" height="520" fill="url(#m-glow)"/>
  <g stroke="#e8edf5" stroke-opacity="0.05" stroke-width="1" fill="none">
    <path d="M0 80 H800 M0 160 H800 M0 240 H800 M0 320 H800 M0 400 H800"/>
    <path d="M100 0 V520 M200 0 V520 M300 0 V520 M400 0 V520 M500 0 V520 M600 0 V520 M700 0 V520"/>
  </g>
  <path d="M0 472 L100 472 L148 438 L280 438 L340 472 L500 472 L572 400 L660 472 L800 472 V520 H0 Z" fill="#050810" opacity="0.46"/>
  <g transform="translate(400 228)">
    <text xml:space="preserve" fill="#f8fafc" font-family="Arial, Helvetica, sans-serif" font-size="40" font-weight="800" letter-spacing="0.01em" text-anchor="middle" y="0" dominant-baseline="middle">MrBuilderNYC</text>
    <rect x="-198" y="30" width="396" height="5" rx="2" fill="#f97316" opacity="0.95"/>
    <text xml:space="preserve" fill="#fdba74" font-family="Arial, Helvetica, sans-serif" font-size="15" font-weight="600" letter-spacing="0.14em" text-anchor="middle" y="68" opacity="0.94">NYC ROOFING &amp; EXTERIOR</text>
  </g>
  <rect x="0" y="0" width="800" height="520" fill="none" stroke="#f97316" stroke-opacity="0.14" stroke-width="2"/>
</svg>
