<svg xmlns="http://www.w3.org/2000/svg" viewBox="0 0 800 520" width="800" height="520" role="img" aria-label="ClearCurrent Plumbing template">
  <defs>
    <linearGradient id="p-bg" x1="0%" y1="0%" x2="100%" y2="100%">
      <stop offset="0%" stop-color="#f8fafc"/>
      <stop offset="50%" stop-color="#eef4fb"/>
      <stop offset="100%" stop-color="#e2ecf7"/>
    </linearGradient>
    <linearGradient id="p-glow" x1="0%" y1="100%" x2="100%" y2="0%">
      <stop offset="0%" stop-color="#2b7cd3" stop-opacity="0.2"/>
      <stop offset="100%" stop-color="#2b7cd3" stop-opacity="0"/>
    </linearGradient>
  </defs>
  <rect width="800" height="520" fill="url(#p-bg)"/>
  <rect width="800" height="520" fill="url(#p-glow)"/>
  <g stroke="#1e3a6e" stroke-opacity="0.06" stroke-width="1" fill="none">
    <path d="M0 104 H800 M0 208 H800 M0 312 H800 M0 416 H800"/>
    <path d="M160 0 V520 M320 0 V520 M480 0 V520 M640 0 V520"/>
  </g>
  <path d="M100 400 Q200 280 320 340 T520 260 T700 320" stroke="#2b7cd3" stroke-width="3" fill="none" opacity="0.45"/>
  <circle cx="520" cy="260" r="6" fill="#1e3a6e" opacity="0.35"/>
  <g transform="translate(400 248)">
    <text fill="#1e3a6e" font-family="Georgia, serif" font-size="40" font-weight="700" text-anchor="middle" y="-8">CLEARCURRENT</text>
    <text fill="#2b7cd3" font-family="Arial, Helvetica, sans-serif" font-size="17" font-weight="700" letter-spacing="0.28em" text-anchor="middle" y="28">PLUMBING</text>
    <rect x="-150" y="48" width="300" height="4" rx="2" fill="#2b7cd3"/>
    <text fill="#64748b" font-family="Arial, Helvetica, sans-serif" font-size="12" font-weight="600" letter-spacing="0.16em" text-anchor="middle" y="78">PREMIUM PLUMBING CONTRACTOR</text>
  </g>
  <rect x="0" y="0" width="800" height="520" fill="none" stroke="#1e3a6e" stroke-opacity="0.1" stroke-width="2"/>
</svg>
