<svg xmlns="http://www.w3.org/2000/svg" viewBox="0 0 800 520" width="800" height="520" role="img" aria-label="Summit Construction template">
  <defs>
    <linearGradient id="s-bg" x1="0%" y1="0%" x2="100%" y2="100%">
      <stop offset="0%" stop-color="#2a1610"/>
      <stop offset="50%" stop-color="#3d2318"/>
      <stop offset="100%" stop-color="#1f120c"/>
    </linearGradient>
    <linearGradient id="s-glow" x1="50%" y1="100%" x2="50%" y2="0%">
      <stop offset="0%" stop-color="#8c4f1f" stop-opacity="0.28"/>
      <stop offset="100%" stop-color="#8c4f1f" stop-opacity="0"/>
    </linearGradient>
  </defs>
  <rect width="800" height="520" fill="url(#s-bg)"/>
  <rect width="800" height="520" fill="url(#s-glow)"/>
  <g stroke="#f8f5f2" stroke-opacity="0.05" stroke-width="1" fill="none">
    <path d="M0 80 H800 M0 160 H800 M0 240 H800 M0 320 H800 M0 400 H800"/>
    <path d="M100 0 V520 M200 0 V520 M300 0 V520 M400 0 V520 M500 0 V520 M600 0 V520 M700 0 V520"/>
  </g>
  <path d="M0 472 L120 472 L164 438 L296 438 L356 472 L520 472 L596 392 L682 472 L800 472 V520 H0 Z" fill="#140a06" opacity="0.42"/>
  <g transform="translate(400 240)">
    <text xml:space="preserve" fill="#fdf6f0" font-family="Arial, Helvetica, sans-serif" font-size="40" font-weight="800" letter-spacing="-0.01em" text-anchor="middle" y="0" dominant-baseline="middle">SUMMIT CONSTRUCTION</text>
    <rect x="-200" y="28" width="400" height="5" rx="2" fill="#8c4f1f" opacity="0.95"/>
    <text xml:space="preserve" fill="#c9936a" font-family="Arial, Helvetica, sans-serif" font-size="14" font-weight="600" letter-spacing="0.2em" text-anchor="middle" y="64" opacity="0.94">TRUST + REVIEWS + BOOKINGS</text>
  </g>
  <rect x="0" y="0" width="800" height="520" fill="none" stroke="#8c4f1f" stroke-opacity="0.15" stroke-width="2"/>
</svg>
