<?xml version="1.0" encoding="UTF-8"?>
<!DOCTYPE svg PUBLIC "-//W3C//DTD SVG 1.1//EN" "http://www.w3.org/Graphics/SVG/1.1/DTD/svg11.dtd">
<!-- Creator: CorelDRAW -->
<svg xmlns="http://www.w3.org/2000/svg" xml:space="preserve" width="210mm" height="195mm" style="shape-rendering:geometricPrecision; text-rendering:geometricPrecision; image-rendering:optimizeQuality; fill-rule:evenodd; clip-rule:evenodd"
viewBox="0 0 210 195"
 xmlns:xlink="http://www.w3.org/1999/xlink">
 <defs>
  <style type="text/css">
   <![CDATA[
    .fil0 {fill:#72706F}
   ]]>
  </style>
 </defs>
 <g id="Layer_x0020_1">
  <metadata id="CorelCorpID_0Corel-Layer"/>
  <path class="fil0" d="M203.199 90.6249l-11 0 0 18.658 -7.6584 0 0 -18.658 -33.5565 0 0 18.658 -7.519 0 0 -18.658 -11.1394 0 0 -6.9274 11.1394 0 0 -17.9619 -11.1394 0 0 -6.9269 11.1394 0 0 -16.5349 7.519 0 0 16.5349 33.5565 0 0 -16.5349 7.6584 0 0 16.5349 11 0 0 6.9269 -11 0 0 17.9619 11 0 0 6.9274zm-50.9967 -58.0281l-47.8289 0 0 20.8161c-3.0284,0 -5.9175,1.5664 -8.5982,4.6648 -2.6802,3.1329 -4.0378,6.6136 -4.0378,10.408 0,3.9684 0.9399,7.2406 2.7501,9.8859 1.8448,2.6807 4.2467,4.0033 7.2402,4.0033 2.994,0 5.4304,-1.3226 7.3101,-4.0033 1.8452,-2.6453 2.7851,-5.9175 2.7851,-9.8859l4.5949 0c0,5.0476 -1.4275,9.3292 -4.2816,12.9144 -2.8546,3.5506 -6.3357,5.3608 -10.4085,5.3608 -4.0028,0 -7.449,-1.8102 -10.3036,-5.3608 -2.8545,-3.5852 -4.2816,-7.8668 -4.2816,-12.9144 0,-4.0727 1.3226,-7.9017 3.9334,-11.4523 2.6107,-3.5856 5.6741,-5.9875 9.1203,-7.2057l0 -17.2309 -83.3001 0 0 -31.0157 135.306 0 0 31.0157zm57.2276 160.822l-208.86 0 0 -97.0852 26.8385 0 0 71.6043 35.2623 0 0 -71.6043 79.0535 0 0 14.3767 11.0001 0 0 -14.3767 29.9713 0 0 14.3767 11.1391 0 0 -14.3767 15.595 0 0 97.0852zm-148.778 -27.3261l-30.9112 0 0 -131.756 30.9112 0 0 131.756zm87.1641 -137.673l0 -22.6268 -25.6898 11.3134 25.6898 11.3134zm-9.9904 -22.6268l-41.9113 0 20.9209 8.842 20.9904 -8.842zm46.7147 77.9047l0 -17.9619 -33.5565 0 0 17.9619 33.5565 0zm-46.7147 -55.2779l-20.9904 -8.8766 -20.9209 8.8766 41.9113 0zm-26.2119 -11.3134l-25.6897 -11.3134 0 22.6268 25.6897 -11.3134zm-29.3448 11.3134l0 -22.6268 -25.7247 11.3134 25.7247 11.3134zm-9.9907 -22.6268l-41.9459 0 21.0254 8.842 20.9205 -8.842zm0 22.6268l-20.9205 -8.8766 -21.0254 8.8766 41.9459 0zm-26.2119 -11.3134l-25.7243 -11.3134 0 22.6268 25.7243 -11.3134zm10.4779 20.6771l-22.7307 0 11.3129 25.7247 11.4178 -25.7247zm0 52.0411l0 -42.0158 -8.8416 20.9904 8.8416 21.0254zm-13.8542 -21.0254l-8.8765 -20.9904 0 42.0158 8.8765 -21.0254zm13.8542 27.5346l-11.4178 -22.348 -11.3129 22.348 22.7307 0zm0 3.4811l-22.7307 0 11.3129 25.6897 11.4178 -25.6897zm0 52.0061l0 -42.0158 -8.8416 20.9904 8.8416 21.0254zm-13.8542 -21.0254l-8.8765 -20.9904 0 42.0158 8.8765 -21.0254zm13.8542 30.9113l-11.4178 -25.6898 -11.3129 25.6898 22.7307 0z"/>
 </g>
</svg>
