<?xml version="1.0" encoding="UTF-8"?>
<svg version="1.1" xmlns="http://www.w3.org/2000/svg" width="1254" height="1254">
<path d="M0 0 C413.82 0 827.64 0 1254 0 C1254 413.82 1254 827.64 1254 1254 C840.18 1254 426.36 1254 0 1254 C0 840.18 0 426.36 0 0 Z " fill="#070706" transform="translate(0,0)"/>
<path d="M0 0 C55.11 0 110.22 0 167 0 C171.22042228 4.82333974 175.33689751 9.57473117 179.25 14.625 C180.20571825 15.84896686 181.16144773 17.07292494 182.1171875 18.296875 C183.07816575 19.53121828 184.03910386 20.76559281 185 22 C186.78901965 24.29374666 188.58069926 26.58538219 190.375 28.875 C190.82254639 29.44613525 191.27009277 30.01727051 191.73120117 30.60571289 C195.83271363 35.8215384 200.02762742 40.95923529 204.22509766 46.09790039 C207.63564276 50.2856025 210.97564105 54.5176035 214.25 58.8125 C218.02588037 63.76146941 221.90680515 68.60411391 225.8671875 73.40625 C227.84959837 75.81709399 229.80517405 78.24629588 231.75 80.6875 C235.20578486 85.01920657 238.69198095 89.32536199 242.1875 93.625 C242.74058838 94.305625 243.29367676 94.98625 243.86352539 95.6875 C246.69609642 99.17173739 249.53256664 102.65270941 252.375 106.12890625 C258.17214392 113.2270678 263.8573724 120.38259938 269.41796875 127.66796875 C273.92091091 133.52021234 278.63092815 139.20944833 283.3046875 144.92529297 C286.14683162 148.40348144 288.97985196 151.88907663 291.8125 155.375 C292.35777344 156.04587646 292.90304687 156.71675293 293.46484375 157.40795898 C297.66937003 162.58458922 301.84265859 167.78540367 306 173 C306.61875 173.77085937 307.2375 174.54171875 307.875 175.3359375 C311.21453447 179.49688972 314.5318675 183.67365193 317.8190918 187.87597656 C322.86277413 194.32253147 327.98771632 200.69615041 333.1628418 207.03759766 C337.11173814 211.88474081 340.98830023 216.7832617 344.8359375 221.7109375 C348.33776455 226.18436975 351.90822679 230.59857554 355.5 235 C361.88153998 242.82344133 368.12199109 250.75072065 374.33398438 258.70898438 C380.19541622 266.2133285 386.13268087 273.64746942 392.15258789 281.02539062 C396.67530053 286.57730815 401.10807757 292.19548646 405.51953125 297.8359375 C407.6607348 300.57269137 409.82441659 303.29044988 412 306 C415.1276902 309.89846518 418.22601762 313.81890953 421.3125 317.75 C421.77930176 318.34441895 422.24610352 318.93883789 422.72705078 319.55126953 C425.05191234 322.51329767 427.37372461 325.4776631 429.69140625 328.4453125 C434.56717997 334.68075392 439.49701168 340.86602285 444.5 347 C450.42338469 354.26467582 456.2382558 361.60674636 462 369 C462.53737793 369.68819824 463.07475586 370.37639648 463.62841797 371.08544922 C469.49248883 378.59580988 475.33881654 386.11769236 481.10205078 393.70581055 C486.05938289 400.23112844 491.12300555 406.59695317 496.4140625 412.85546875 C500.1057951 417.28641244 503.55189386 421.90883971 507.03637695 426.50292969 C511.16779776 431.94031863 515.39845727 437.28761439 519.68212891 442.60546875 C523.35415676 447.1714177 526.94273511 451.79509975 530.50170898 456.44946289 C532.88224812 459.55872875 535.29362851 462.63785234 537.75 465.6875 C541.49026832 470.33450004 545.15431655 475.03836163 548.8125 479.75 C556.83025387 490.07405598 564.87928013 500.36893275 573.0625 510.5625 C577.19812694 515.71532307 581.26902311 520.91121014 585.28369141 526.15869141 C589.67257504 531.89207549 594.13996067 537.56281173 598.60888672 543.23388672 C600.90874237 546.15371048 603.20415945 549.07701893 605.5 552 C606.4166451 553.16668361 607.33331177 554.33335027 608.25 555.5 C610.08333333 557.83333333 611.91666667 560.16666667 613.75 562.5 C614.2035083 563.07717773 614.6570166 563.65435547 615.12426758 564.24902344 C616.04343313 565.41890016 616.96254095 566.58882223 617.8815918 567.75878906 C620.13456094 570.62671157 622.38843723 573.4939099 624.64453125 576.359375 C629.84862217 582.97181168 635.02698433 589.60348633 640.1875 596.25 C644.42829259 601.71071553 648.69125885 607.14957309 653.02734375 612.53515625 C655.45589197 615.56963927 657.85302402 618.62805799 660.25 621.6875 C664.15557007 626.67190042 668.09701272 631.62566541 672.0625 636.5625 C676.53845397 642.14066656 680.93199217 647.7723727 685.27734375 653.453125 C689.24155533 658.63025575 693.25814693 663.76691406 697.26708984 668.90942383 C697.83766113 669.64185303 698.40823242 670.37428223 698.99609375 671.12890625 C699.50325928 671.77931885 700.0104248 672.42973145 700.53295898 673.09985352 C701.01708252 673.72690186 701.50120605 674.3539502 702 675 C702.55695557 675.69859131 703.11391113 676.39718262 703.68774414 677.11694336 C705 679 705 679 705 681 C680.28713944 681.3273603 655.57460478 681.57407431 630.8600111 681.72537041 C619.3838818 681.79749482 607.90910128 681.8957816 596.43383789 682.05615234 C586.42930525 682.19590221 576.42574948 682.28606262 566.42026788 682.31723893 C561.12409864 682.3354587 555.83072337 682.37811837 550.53545189 682.48022079 C545.54488742 682.57566315 540.55825066 682.60448705 535.5668602 682.58350754 C533.74101037 682.58734162 531.91502168 682.61496515 530.08996391 682.66887665 C516.68283803 683.04530302 516.68283803 683.04530302 512.19805741 679.62626123 C508.93135769 676.32737256 506.42022267 672.63654404 504.03578532 668.66959596 C502.60843369 666.36882912 500.92578018 664.32145134 499.1875 662.25 C491.18958558 652.28134691 483.40085054 642.14234707 475.625 632 C472.1532789 627.47658489 468.61969262 623.01087587 465.04296875 618.5703125 C462.76147708 615.69990806 460.5364832 612.79017283 458.3125 609.875 C454.52998141 604.92178934 450.63714679 600.0707365 446.6875 595.25 C441.59252335 589.02656035 436.66626285 582.69357453 431.80541992 576.28613281 C428.2701787 571.63491977 424.66778377 567.04727869 421 562.5 C416.15985394 556.49617286 411.45316874 550.40009851 406.78295898 544.26342773 C403.41059093 539.83527425 400.00918866 535.43304335 396.5625 531.0625 C387.50208194 519.57351628 378.53475604 508.01237957 369.625 496.40625 C366.43372025 492.25758632 363.215787 488.12967519 360 484 C355.18248203 477.81340107 350.38765077 471.61058922 345.61328125 465.390625 C342.48952436 461.32961916 339.33680504 457.29120058 336.1875 453.25 C331.53084271 447.27379841 326.90555589 441.27521054 322.3125 435.25 C317.90573782 429.46985665 313.45360043 423.72929013 308.95019531 418.02416992 C305.95563395 414.22753286 302.99958917 410.40371404 300.0625 406.5625 C296.43660086 401.8244462 292.73791133 397.15011848 289 392.5 C284.83973032 387.32445002 280.74437893 382.10687454 276.70996094 376.83276367 C273.30548835 372.38518124 269.85118214 367.9786049 266.38427734 363.57958984 C263.18868059 359.52145984 260.01450543 355.44726772 256.84887695 351.36572266 C251.34432129 344.26855468 245.80497968 337.20359042 240.17016602 330.20922852 C236.39180621 325.51506788 232.69128086 320.76282891 229 316 C227.8804042 314.55844161 226.76061527 313.11703319 225.640625 311.67578125 C225.08793945 310.96446045 224.53525391 310.25313965 223.96582031 309.52026367 C219.07692187 303.22966768 214.17990676 296.94602152 209.25 290.6875 C205.45726018 285.87113782 201.70175272 281.02801247 197.97070312 276.16357422 C192.63019427 269.20554732 187.23412502 262.29067314 181.84521484 255.37011719 C178.74947688 251.39374458 175.65610662 247.41553085 172.5625 243.4375 C171.45964651 242.01952262 170.35678228 240.60155359 169.25390625 239.18359375 C165.8359375 234.7890625 162.41796875 230.39453125 159 226 C158.67 376.15 158.34 526.3 158 681 C105.86 681 53.72 681 0 681 C0 456.27 0 231.54 0 0 Z " fill="#FDFCFC" transform="translate(280,270)"/>
<path d="M0 0 C3.06362187 3.03695713 5.95695443 6.04661389 8.625 9.4375 C9.31464844 10.31019531 10.00429688 11.18289063 10.71484375 12.08203125 C11.88574474 13.57718175 13.05662289 15.07235022 14.22705078 16.56787109 C15.54673886 18.25394294 16.86693709 19.93961324 18.1875 21.625 C18.64721191 22.2120874 19.10692383 22.7991748 19.58056641 23.40405273 C23.71272341 28.66617352 27.932723 33.85413392 32.1628418 39.03759766 C36.11173814 43.88474081 39.98830023 48.7832617 43.8359375 53.7109375 C47.33776455 58.18436975 50.90822679 62.59857554 54.5 67 C60.88153998 74.82344133 67.12199109 82.75072065 73.33398438 90.70898438 C79.19541622 98.2133285 85.13268087 105.64746942 91.15258789 113.02539062 C95.67530053 118.57730815 100.10807757 124.19548646 104.51953125 129.8359375 C106.6607348 132.57269137 108.82441659 135.29044988 111 138 C114.1276902 141.89846518 117.22601762 145.81890953 120.3125 149.75 C120.77930176 150.34441895 121.24610352 150.93883789 121.72705078 151.55126953 C124.05191234 154.51329767 126.37372461 157.4776631 128.69140625 160.4453125 C133.56717997 166.68075392 138.49701168 172.86602285 143.5 179 C149.42338469 186.26467582 155.2382558 193.60674636 161 201 C161.80606689 202.03229736 161.80606689 202.03229736 162.62841797 203.08544922 C168.49248883 210.59580988 174.33881654 218.11769236 180.10205078 225.70581055 C185.05938289 232.23112844 190.12300555 238.59695317 195.4140625 244.85546875 C199.1057951 249.28641244 202.55189386 253.90883971 206.03637695 258.50292969 C210.16779776 263.94031863 214.39845727 269.28761439 218.68212891 274.60546875 C222.35415676 279.1714177 225.94273511 283.79509975 229.50170898 288.44946289 C231.88224812 291.55872875 234.29362851 294.63785234 236.75 297.6875 C240.49026832 302.33450004 244.15431655 307.03836163 247.8125 311.75 C255.83025387 322.07405598 263.87928013 332.36893275 272.0625 342.5625 C276.19812694 347.71532307 280.26902311 352.91121014 284.28369141 358.15869141 C288.67257504 363.89207549 293.13996067 369.56281173 297.60888672 375.23388672 C299.90874237 378.15371048 302.20415945 381.07701893 304.5 384 C305.4166451 385.16668361 306.33331177 386.33335027 307.25 387.5 C309.08333333 389.83333333 310.91666667 392.16666667 312.75 394.5 C313.43026245 395.3657666 313.43026245 395.3657666 314.12426758 396.24902344 C315.04343313 397.41890016 315.96254095 398.58882223 316.8815918 399.75878906 C319.13456094 402.62671157 321.38843723 405.4939099 323.64453125 408.359375 C328.84862217 414.97181168 334.02698433 421.60348633 339.1875 428.25 C343.42829259 433.71071553 347.69125885 439.14957309 352.02734375 444.53515625 C354.45589197 447.56963927 356.85302402 450.62805799 359.25 453.6875 C363.15557007 458.67190042 367.09701272 463.62566541 371.0625 468.5625 C375.53845397 474.14066656 379.93199217 479.7723727 384.27734375 485.453125 C388.24155533 490.63025575 392.25814693 495.76691406 396.26708984 500.90942383 C396.83766113 501.64185303 397.40823242 502.37428223 397.99609375 503.12890625 C398.50325928 503.77931885 399.0104248 504.42973145 399.53295898 505.09985352 C400.01708252 505.72690186 400.50120605 506.3539502 401 507 C401.55695557 507.69859131 402.11391113 508.39718262 402.68774414 509.11694336 C404 511 404 511 404 513 C379.28713944 513.3273603 354.57460478 513.57407431 329.8600111 513.72537041 C318.3838818 513.79749482 306.90910128 513.8957816 295.43383789 514.05615234 C285.42930525 514.19590221 275.42574948 514.28606262 265.42026788 514.31723893 C260.12409864 514.3354587 254.83072337 514.37811837 249.53545189 514.48022079 C244.54488742 514.57566315 239.55825066 514.60448705 234.5668602 514.58350754 C232.74101037 514.58734162 230.91502168 514.61496515 229.08996391 514.66887665 C215.68283803 515.04530302 215.68283803 515.04530302 211.19805741 511.62626123 C207.93135769 508.32737256 205.42022267 504.63654404 203.03578532 500.66959596 C201.60843369 498.36882912 199.92578018 496.32145134 198.1875 494.25 C190.18958558 484.28134691 182.40085054 474.14234707 174.625 464 C171.1532789 459.47658489 167.61969262 455.01087587 164.04296875 450.5703125 C161.76147708 447.69990806 159.5364832 444.79017283 157.3125 441.875 C153.52998141 436.92178934 149.63714679 432.0707365 145.6875 427.25 C140.59252335 421.02656035 135.66626285 414.69357453 130.80541992 408.28613281 C127.2701787 403.63491977 123.66778377 399.04727869 120 394.5 C115.15985394 388.49617286 110.45316874 382.40009851 105.78295898 376.26342773 C102.41059093 371.83527425 99.00918866 367.43304335 95.5625 363.0625 C86.50208194 351.57351628 77.53475604 340.01237957 68.625 328.40625 C65.43372025 324.25758632 62.215787 320.12967519 59 316 C54.18248203 309.81340107 49.38765077 303.61058922 44.61328125 297.390625 C41.48952436 293.32961916 38.33680504 289.29120058 35.1875 285.25 C29.98631724 278.57497223 24.83053136 271.86711619 19.7019043 265.13623047 C15.74999286 259.95811507 11.74528476 254.82411219 7.6887207 249.72753906 C6.44739885 248.16093033 5.22360281 246.58048697 4 245 C3.56704552 244.50781493 3.13409103 244.01562985 2.68801671 243.50853008 C-1.41568588 238.51554545 -1.69200231 234.43824022 -1.56330872 228.12281799 C-1.56349729 227.14495156 -1.56368586 226.16708512 -1.56388015 225.15958637 C-1.5584162 221.89170374 -1.51707498 218.62527813 -1.47583008 215.35766602 C-1.46455468 213.01184513 -1.45549558 210.66601269 -1.44848633 208.32017517 C-1.42319279 201.95686578 -1.3668877 195.59416345 -1.3050406 189.23111844 C-1.25167132 183.2535106 -1.22149651 177.27580462 -1.19120713 171.29804575 C-1.13047459 159.46097579 -1.0472985 147.62417482 -0.94995117 135.78735352 C-0.85545738 124.29164378 -0.77156922 112.795937 -0.7019043 101.30004883 C-0.69760368 100.59098295 -0.69330307 99.88191706 -0.68887214 99.15136433 C-0.66736169 95.59405084 -0.64605932 92.03673614 -0.62486041 88.47942078 C-0.44883302 58.98603238 -0.2359827 29.49296946 0 0 Z " fill="#F5BD0A" transform="translate(581,438)"/>
<path d="M0 0 C55.77 0 111.54 0 169 0 C169 172.26 169 344.52 169 522 C168.34 522 167.68 522 167 522 C165.51171875 520.15625 165.51171875 520.15625 163.6875 517.5 C160.19480851 512.57100241 156.51890921 507.85739903 152.6875 503.1875 C148.57162747 498.16482062 144.493729 493.12042887 140.5 488 C136.47670184 482.8459129 132.38254823 477.754384 128.25 472.6875 C124.37389527 467.93387112 120.52743727 463.16578264 116.78125 458.30859375 C110.44370968 450.09480794 104.00046751 441.97207564 97.4375 433.9375 C92.71160864 428.15135678 88.12332007 422.28513412 83.59375 416.34375 C80.63788937 412.50113119 77.56892193 408.7524869 74.5 405 C69.75144423 399.19376127 65.14146776 393.30893823 60.59375 387.34375 C57.63788937 383.50113119 54.56892193 379.7524869 51.5 376 C46.75144423 370.19376127 42.14146776 364.30893823 37.59375 358.34375 C34.6378866 354.50112759 31.56882678 350.75256886 28.5 347 C23.72709078 341.16120119 19.07103729 335.2525661 14.49609375 329.2578125 C11.6747938 325.56376914 8.80884844 321.90520697 5.9375 318.25 C5.45974121 317.64075684 4.98198242 317.03151367 4.48974609 316.40380859 C2.35045412 313.61043314 2.35045412 313.61043314 0 311 C-0.09718977 309.34232335 -0.12371551 307.68047311 -0.12304783 306.01994991 C-0.12503888 304.93462284 -0.12702993 303.84929577 -0.12908131 302.73108 C-0.12616847 301.52390792 -0.12325563 300.31673584 -0.12025452 299.07298279 C-0.12110894 297.80214358 -0.12196337 296.53130437 -0.12284368 295.22195488 C-0.12509103 291.67831353 -0.1210641 288.13470211 -0.11606562 284.59106457 C-0.11176473 280.77577723 -0.11320729 276.96049171 -0.1139679 273.14520264 C-0.11449336 266.52957697 -0.11134421 259.91396113 -0.10573006 253.29833794 C-0.0976181 243.73314642 -0.09500015 234.16795968 -0.09374207 224.60276509 C-0.09155107 209.08551583 -0.08488968 193.56827181 -0.07543945 178.05102539 C-0.06626657 162.9735517 -0.0591966 147.89607943 -0.05493164 132.81860352 C-0.05466364 131.88042807 -0.05439565 130.94225263 -0.05411953 129.97564763 C-0.05204022 122.63897723 -0.05008326 115.30230681 -0.04816496 107.96563637 C-0.03872381 71.9770861 -0.01860728 35.98854895 0 0 Z " fill="#F6BE09" transform="translate(792,270)"/>
<path d="M0 0 C0.33 0 0.66 0 1 0 C1 87.45 1 174.9 1 265 C-86.78 265 -174.56 265 -265 265 C-265 264.67 -265 264.34 -265 264 C-263.83936035 263.89510254 -263.83936035 263.89510254 -262.65527344 263.78808594 C-247.6627974 262.40655703 -232.88939127 260.86497367 -218.19091797 257.49414062 C-216.0921728 257.02078869 -213.98906289 256.59097063 -211.87890625 256.171875 C-172.73917417 248.1002754 -134.92529727 227.93079163 -104 203 C-102.54013672 201.84757812 -102.54013672 201.84757812 -101.05078125 200.671875 C-93.70938148 194.69347518 -86.96504277 188.17101932 -80.25 181.5 C-79.37472656 180.6339917 -78.49945312 179.7679834 -77.59765625 178.87573242 C-71.64396393 172.89332997 -66.23254403 166.61889983 -61 160 C-60.51192871 159.3915625 -60.02385742 158.783125 -59.52099609 158.15625 C-23.13292286 112.6100564 -4.21449912 57.8016895 0 0 Z " fill="#FCFCFC" transform="translate(1253,989)"/>
<path d="M0 0 C0.33 0 0.66 0 1 0 C1.05422119 0.71615479 1.10844238 1.43230957 1.16430664 2.17016602 C3.22642114 28.0356757 7.54766164 53.70728358 17 78 C17.33837891 78.88075195 17.67675781 79.76150391 18.02539062 80.66894531 C26.38689084 102.18772739 36.36807069 123.28981391 50 142 C50.45697266 142.63663574 50.91394531 143.27327148 51.38476562 143.92919922 C67.3523275 166.10336752 86.10167977 187.70548993 108.31982422 203.77734375 C110.11973118 205.08712783 111.89029093 206.43118725 113.66015625 207.78125 C122.0888081 214.16350664 130.7641584 219.85764012 140 225 C140.82467773 225.46019531 141.64935547 225.92039062 142.49902344 226.39453125 C179.78172257 246.98490352 221.3465048 259.74278949 264 262 C264 262.33 264 262.66 264 263 C176.88 263 89.76 263 0 263 C0 176.21 0 89.42 0 0 Z " fill="#FDFDFD" transform="translate(0,991)"/>
<path d="M0 0 C85.8 0 171.6 0 260 0 C260 0.33 260 0.66 260 1 C259.34330322 1.06469482 258.68660645 1.12938965 258.01000977 1.19604492 C209.73781378 6.06716734 163.06060112 19.75543857 123 48 C122.21753906 48.54946289 121.43507813 49.09892578 120.62890625 49.66503906 C110.45201389 56.86362288 101.01350919 64.39619577 92 73 C90.65328959 74.17526573 89.29981222 75.34285528 87.9375 76.5 C79.04147192 84.25172571 71.33203612 92.77582553 64 102 C62.5005001 103.79208524 61.00049686 105.58374943 59.5 107.375 C24.23701026 150.67722056 3.06150402 207.23631617 1 263 C0.67 263 0.34 263 0 263 C0 176.21 0 89.42 0 0 Z " fill="#FDFDFD" transform="translate(0,0)"/>
<path d="M0 0 C86.13 0 172.26 0 261 0 C261 85.8 261 171.6 261 260 C260.67 260 260.34 260 260 260 C259.90295776 258.9162207 259.90295776 258.9162207 259.80395508 257.81054688 C256.8261434 225.44058369 250.04572655 195.78664417 237 166 C236.64035156 165.17612793 236.28070312 164.35225586 235.91015625 163.50341797 C224.93532737 138.66432494 209.87178363 116.37499762 192 96 C191.43539063 95.32453125 190.87078125 94.6490625 190.2890625 93.953125 C181.84649512 83.92489776 172.19041753 74.24938562 162 66 C161.51241211 65.60393555 161.02482422 65.20787109 160.52246094 64.79980469 C135.21409487 44.32914399 107.23516335 28.13479612 76.63134766 16.96459961 C74.89568955 16.32834194 73.16590114 15.67580519 71.44287109 15.00610352 C63.50141051 11.97131524 55.38311744 9.88923675 47.125 7.9375 C46.39420227 7.7629126 45.66340454 7.5883252 44.91046143 7.40844727 C30.03130961 3.89035951 15.25296622 2.06669007 0 1 C0 0.67 0 0.34 0 0 Z " fill="#FDFDFD" transform="translate(993,0)"/>
<path d="M0 0 C55.77 0 111.54 0 169 0 C169 172.26 169 344.52 169 522 C168.34 522 167.68 522 167 522 C165.82963819 517.81362751 165.87021813 513.76666957 165.89256954 509.44924545 C165.89310407 508.57342925 165.8936386 507.69761306 165.89418933 506.79525697 C165.89723434 503.8400184 165.90750972 500.88484839 165.91770935 497.92962646 C165.92140167 495.79777796 165.92465131 493.66592865 165.92749459 491.53407884 C165.93661796 485.65988845 165.95205059 479.7857287 165.96847737 473.91155481 C165.985082 467.58301135 165.9958867 461.25445774 166.00738525 454.92590332 C166.02811574 443.95592083 166.05251002 432.98595234 166.07946587 422.01598358 C166.10772635 410.50885175 166.13390819 399.00171829 166.15730476 387.4945755 C166.15875985 386.77949552 166.16021494 386.06441554 166.16171412 385.32766647 C166.16909272 381.69623919 166.17643409 378.06481183 166.18376113 374.43338445 C166.23574569 348.70199946 166.29240462 322.97062666 166.35180664 297.23925781 C166.40950957 272.23926256 166.46509883 247.23926408 166.51782227 222.23925781 C166.52026064 221.08364769 166.52026064 221.08364769 166.52274827 219.90469192 C166.53907048 212.16805612 166.55534966 204.43142023 166.57159733 196.69478427 C166.60469763 180.93391246 166.63808508 165.17304125 166.67164612 149.41217041 C166.6731889 148.68748729 166.67473168 147.96280416 166.67632121 147.21616094 C166.72363086 125.0006923 166.77215774 102.78522655 166.82188416 80.56976318 C166.82466999 79.32496045 166.82745583 78.08015771 166.83032609 76.79763368 C166.88619824 51.86508757 166.94325207 26.93254413 167 2 C112.88 2 58.76 2 3 2 C3 104.63 3 207.26 3 313 C2.01 312.34 1.02 311.68 0 311 C-0.37259549 308.75746191 -0.37259549 308.75746191 -0.36914349 305.89690208 C-0.37511663 304.80958396 -0.38108978 303.72226584 -0.38724393 302.60199869 C-0.3785054 301.39773945 -0.36976688 300.19348021 -0.36076355 298.95272827 C-0.36460846 297.04518782 -0.36460846 297.04518782 -0.36853105 295.0991112 C-0.3752647 291.55763888 -0.36320417 288.01643681 -0.34819686 284.47499895 C-0.33528199 280.66041074 -0.33962272 276.84583866 -0.34190369 273.03123474 C-0.34347931 266.41832217 -0.33403998 259.80549817 -0.31719017 253.19260788 C-0.29284381 243.63140782 -0.28499938 234.07025073 -0.2812262 224.50902303 C-0.27465484 208.99785303 -0.25467517 193.48673027 -0.22631836 177.97558594 C-0.19879546 162.90495029 -0.17758762 147.83432752 -0.16479492 132.76367188 C-0.16399093 131.82576443 -0.16318694 130.88785698 -0.16235858 129.9215281 C-0.15612058 122.58684276 -0.15024971 115.25215714 -0.14449489 107.91747141 C-0.11617661 71.94493758 -0.05582585 35.97252197 0 0 Z " fill="#EFBF09" transform="translate(792,270)"/>
<path d="M0 0 C55.11 0 110.22 0 167 0 C167 0.33 167 0.66 167 1 C112.88 1 58.76 1 3 1 C3 103.96 3 206.92 3 313 C2.01 312.34 1.02 311.68 0 311 C-0.37259549 308.75746191 -0.37259549 308.75746191 -0.36914349 305.89690208 C-0.37511663 304.80958396 -0.38108978 303.72226584 -0.38724393 302.60199869 C-0.3785054 301.39773945 -0.36976688 300.19348021 -0.36076355 298.95272827 C-0.36460846 297.04518782 -0.36460846 297.04518782 -0.36853105 295.0991112 C-0.3752647 291.55763888 -0.36320417 288.01643681 -0.34819686 284.47499895 C-0.33528199 280.66041074 -0.33962272 276.84583866 -0.34190369 273.03123474 C-0.34347931 266.41832217 -0.33403998 259.80549817 -0.31719017 253.19260788 C-0.29284381 243.63140782 -0.28499938 234.07025073 -0.2812262 224.50902303 C-0.27465484 208.99785303 -0.25467517 193.48673027 -0.22631836 177.97558594 C-0.19879546 162.90495029 -0.17758762 147.83432752 -0.16479492 132.76367188 C-0.16399093 131.82576443 -0.16318694 130.88785698 -0.16235858 129.9215281 C-0.15612058 122.58684276 -0.15024971 115.25215714 -0.14449489 107.91747141 C-0.11617661 71.94493758 -0.05582585 35.97252197 0 0 Z " fill="#D3AC09" transform="translate(792,270)"/>
<path d="M0 0 C0 3.19598122 -0.3723873 4.32532435 -2 7 C-3.7265625 8.703125 -3.7265625 8.703125 -5.625 10.25 C-6.25664063 10.77078125 -6.88828125 11.2915625 -7.5390625 11.828125 C-8.02117187 12.21484375 -8.50328125 12.6015625 -9 13 C-9.66 12.67 -10.32 12.34 -11 12 C-7.37 8.04 -3.74 4.08 0 0 Z " fill="#202021" transform="translate(76,87)"/>
<path d="M0 0 C0.66 0.33 1.32 0.66 2 1 C2 1.66 2 2.32 2 3 C-1.40652872 6.20614467 -4.51400257 7.74809374 -9 9 C-6 6 -3 3 0 0 Z " fill="#212122" transform="translate(105,60)"/>
<path d="M0 0 C2.5 2.3125 2.5 2.3125 5 5 C5 5.99 5 6.98 5 8 C4.01 7.34 3.02 6.68 2 6 C1.34 7.32 0.68 8.64 0 10 C0 6.7 0 3.4 0 0 Z " fill="#161616" transform="translate(438,495)"/>
<path d="M0 0 C2.93200474 2.85276137 5.64315404 5.65079784 8 9 C7.34 9.66 6.68 10.32 6 11 C5.34 9.35 4.68 7.7 4 6 C3.34 6 2.68 6 2 6 C1.34 4.02 0.68 2.04 0 0 Z " fill="#E8B808" transform="translate(669,549)"/>
<path d="M0 0 C1.37562854 1.28965176 2.70766393 2.62689293 4 4 C4 4.66 4 5.32 4 6 C2.02 6 0.04 6 -2 6 C-1.34 4.02 -0.68 2.04 0 0 Z " fill="#E4B604" transform="translate(981,945)"/>
<path d="M0 0 C4.875 3.625 4.875 3.625 6 7 C4.125 6.6875 4.125 6.6875 2 6 C0 3 0 3 0 0 Z " fill="#171617" transform="translate(500,575)"/>
<path d="M0 0 C0.66 0 1.32 0 2 0 C1.375 1.875 1.375 1.875 0 4 C-3.125 5.25 -3.125 5.25 -6 6 C-4 4 -2 2 0 0 Z " fill="#19191A" transform="translate(117,51)"/>
</svg>
