<svg width="182" height="42" viewBox="0 0 182 42" fill="none" xmlns="http://www.w3.org/2000/svg">
<g clip-path="url(#clip0_111_616)">
<path d="M7.225 16.3738H0V41.9951H7.225V16.3738Z" fill="#33CC66"/>
<path d="M25.62 16.3738C25.6347 18.8035 24.6763 21.1401 22.9542 22.873C21.2321 24.6059 18.8865 25.594 16.43 25.6214V25.6214C12.0598 25.6501 7.87874 27.3884 4.80022 30.4564C1.72169 33.5243 -0.00405287 37.6727 7.14756e-06 41.9951H7.22501C7.21429 39.5649 8.17536 37.229 9.89874 35.4967C11.6221 33.7644 13.968 32.7762 16.425 32.7475C20.7947 32.72 24.9755 30.9819 28.0527 27.9133C31.1299 24.8448 32.853 20.6957 32.845 16.3738H25.62Z" fill="#000099"/>
<path d="M16.4252 -0.0098877C12.0559 0.0188651 7.87584 1.75743 4.7989 4.82569C1.72196 7.89395 -0.00155851 12.0423 0.00514644 16.3638H7.22516C7.21179 13.9337 8.17133 11.597 9.89419 9.8643C11.6171 8.13158 13.9632 7.14362 16.4201 7.11622C18.8775 7.14232 21.2244 8.12988 22.9476 9.86288C24.6707 11.5959 25.6298 13.9333 25.6152 16.3638H32.8401C32.8482 12.0428 31.1258 7.8944 28.0496 4.82599C24.9735 1.75759 20.794 0.0188686 16.4252 -0.0098877V-0.0098877Z" fill="#3399FF"/>
<path d="M125.92 14.3808L123.28 17.5655C122.14 16.4285 120.594 15.7803 118.975 15.7605C117.62 15.7605 116.92 16.2204 116.92 17.1056C116.92 17.8326 117.42 18.2183 118.92 18.7919L120.785 19.5585C124.505 21.042 126.175 22.5503 126.175 25.3543C126.213 26.2121 126.039 27.0662 125.667 27.842C125.295 28.6178 124.736 29.2918 124.04 29.805C122.493 30.9267 120.607 31.4952 118.69 31.4172C115.275 31.4172 112.64 30.1907 110.74 27.733L113.375 24.5878C115.045 26.3137 116.875 27.1593 118.765 27.1593C120.16 27.1593 121.21 26.6203 121.21 25.5867C121.21 24.7806 120.665 24.474 119.21 23.8608L117.155 23.0152C113.625 21.5959 111.92 20.0233 111.92 17.2243C111.92 13.6588 114.79 11.5076 118.98 11.5076C121.875 11.5026 124.17 12.462 125.92 14.3808Z" fill="#000099"/>
<path d="M88.0399 12.1158H83.2299V14.1681C80.5749 10.8944 73.9599 10.5828 70.3599 14.4599C66.9249 18.154 66.7599 24.8449 70.3599 28.717C73.9599 32.5892 80.5699 32.2776 83.2249 29.0039V31.0561H88.0349L88.0399 12.1158ZM78.0399 26.7983C71.4249 26.7983 71.4149 16.3737 78.0399 16.3737C84.4899 16.3737 84.5149 26.7983 78.0399 26.7983Z" fill="#000099"/>
<path d="M45.0701 36.9756H49.8751V29.0187C52.5351 32.2925 59.1501 32.604 62.7451 28.7319C66.34 24.8598 66.18 18.1688 62.7451 14.4698C59.1451 10.5977 52.5301 10.9092 49.8751 14.183V12.1307H45.0751L45.0701 36.9756ZM55.0701 16.3886C61.6901 16.3886 61.6801 26.8131 55.0701 26.8131C48.5951 26.8131 48.6251 16.3886 55.0801 16.3886H55.0701Z" fill="#000099"/>
<path d="M181.64 12.017H176.83V14.0693C174.17 10.7955 167.56 10.4839 163.96 14.361C160.525 18.0601 160.36 24.7461 163.96 28.6182C167.56 32.4903 174.17 32.1837 176.825 28.905V30.9573H181.635L181.64 12.017ZM171.64 26.6994C165.03 26.6994 165.02 16.2748 171.64 16.2748C178.09 16.2748 178.115 26.6945 171.635 26.6945L171.64 26.6994Z" fill="#000099"/>
<path d="M105.6 11.9824L100.6 24.4493L95.905 11.9824H90.375L97.725 29.8594C97.495 31.1353 96.46 32.5546 93.05 32.6041V37.0795C97.48 37.3812 100.795 35.1311 102.355 31.5952L111.11 11.9675L105.6 11.9824Z" fill="#000099"/>
<path d="M159.8 16.6754V11.7302C159.264 11.6504 158.722 11.6091 158.18 11.6065C157.023 11.5715 155.87 11.7676 154.791 12.1831C153.712 12.5986 152.729 13.225 151.9 14.0248C151.06 14.8693 150.404 15.8759 149.974 16.9819C149.544 18.0879 149.348 19.2697 149.4 20.4536V31.0809H154.64V20.2014C154.616 19.7239 154.691 19.2467 154.861 18.7992C155.031 18.3517 155.293 17.9436 155.629 17.6C155.965 17.2565 156.369 16.9848 156.815 16.802C157.262 16.6191 157.742 16.5289 158.225 16.5369C158.753 16.5425 159.279 16.5888 159.8 16.6754Z" fill="#000099"/>
<path d="M137.84 11.5323C135.846 11.536 133.899 12.1252 132.244 13.2252C130.59 14.3252 129.303 15.8864 128.546 17.7108C127.79 19.5353 127.599 21.5407 127.996 23.4729C128.394 25.4051 129.363 27.177 130.78 28.5638C134.97 32.5447 142.16 32.0898 145.835 29.0583L143.835 25.3741C141.085 27.4659 134.415 28.1978 133.045 23.1834H146.76C146.89 21.2745 147.22 18.52 145.76 15.9237C143.34 11.562 138.84 11.5323 137.84 11.5323ZM137.645 15.716C139.85 15.716 141.61 17.1155 141.77 19.3112H133.115C133.79 17.1155 135.515 15.716 137.645 15.716V15.716Z" fill="#000099"/>
</g>
<defs>
<clipPath id="clip0_111_616">
<rect width="181.64" height="42" fill="white"/>
</clipPath>
</defs>
</svg>
